<svg xmlns="http://www.w3.org/2000/svg" width="1920" height="1080"><path d="M994,569L1032,386L906,574Z" fill="#8a8a8a" stroke="#8a8a8a" stroke-width="1.51"/><path d="M1032,386L882,349L906,574Z" fill="#858585" stroke="#858585" stroke-width="1.51"/><path d="M882,349L672,492L906,574Z" fill="#828282" stroke="#828282" stroke-width="1.51"/><path d="M994,569L1239,509L1032,386Z" fill="#8c8c8c" stroke="#8c8c8c" stroke-width="1.51"/><path d="M1239,509L1227,349L1032,386Z" fill="#8a8a8a" stroke="#8a8a8a" stroke-width="1.51"/><path d="M1103,133L878,107L882,349Z" fill="#787878" stroke="#787878" stroke-width="1.51"/><path d="M882,349L640,315L672,492Z" fill="#7a7a7a" stroke="#7a7a7a" stroke-width="1.51"/><path d="M723,170L640,315L882,349Z" fill="#747474" stroke="#747474" stroke-width="1.51"/><path d="M906,574L842,788L994,569Z" fill="#8e8e8e" stroke="#8e8e8e" stroke-width="1.51"/><path d="M994,569L1270,687L1239,509Z" fill="#939393" stroke="#939393" stroke-width="1.51"/><path d="M652,702L842,788L906,574Z" fill="#8c8c8c" stroke="#8c8c8c" stroke-width="1.51"/><path d="M842,788L1100,776L994,569Z" fill="#939393" stroke="#939393" stroke-width="1.51"/><path d="M1103,133L882,349L1032,386Z" fill="#7e7e7e" stroke="#7e7e7e" stroke-width="1.51"/><path d="M1227,349L1103,133L1032,386Z" fill="#818181" stroke="#818181" stroke-width="1.51"/><path d="M878,107L723,170L882,349Z" fill="#737373" stroke="#737373" stroke-width="1.51"/><path d="M672,492L652,702L906,574Z" fill="#858585" stroke="#858585" stroke-width="1.51"/><path d="M528,477L652,702L672,492Z" fill="#7f7f7f" stroke="#7f7f7f" stroke-width="1.51"/><path d="M1100,776L1270,687L994,569Z" fill="#959595" stroke="#959595" stroke-width="1.51"/><path d="M1239,509L1410,483L1227,349Z" fill="#8f8f8f" stroke="#8f8f8f" stroke-width="1.51"/><path d="M640,315L528,477L672,492Z" fill="#787878" stroke="#787878" stroke-width="1.51"/><path d="M508,376L528,477L640,315Z" fill="#747474" stroke="#747474" stroke-width="1.51"/><path d="M842,788L890,891L1100,776Z" fill="#969696" stroke="#969696" stroke-width="1.51"/><path d="M1100,776L1228,932L1270,687Z" fill="#9c9c9c" stroke="#9c9c9c" stroke-width="1.51"/><path d="M660,862L890,891L842,788Z" fill="#929292" stroke="#929292" stroke-width="1.51"/><path d="M524,203L508,376L640,315Z" fill="#6f6f6f" stroke="#6f6f6f" stroke-width="1.51"/><path d="M890,891L1073,895L1100,776Z" fill="#9a9a9a" stroke="#9a9a9a" stroke-width="1.51"/><path d="M1270,687L1410,483L1239,509Z" fill="#969696" stroke="#969696" stroke-width="1.51"/><path d="M1227,349L1278,94L1103,133Z" fill="#7d7d7d" stroke="#7d7d7d" stroke-width="1.51"/><path d="M652,702L660,862L842,788Z" fill="#8d8d8d" stroke="#8d8d8d" stroke-width="1.51"/><path d="M438,694L660,862L652,702Z" fill="#868686" stroke="#868686" stroke-width="1.51"/><path d="M723,170L524,203L640,315Z" fill="#6d6d6d" stroke="#6d6d6d" stroke-width="1.51"/><path d="M702,17L524,203L723,170Z" fill="#686868" stroke="#686868" stroke-width="1.51"/><path d="M1403,211L1278,94L1227,349Z" fill="#818181" stroke="#818181" stroke-width="1.51"/><path d="M905,-54L702,17L878,107Z" fill="#656565" stroke="#656565" stroke-width="1.51"/><path d="M1410,483L1413,291L1227,349Z" fill="#8c8c8c" stroke="#8c8c8c" stroke-width="1.51"/><path d="M905,-54L878,107L1086,-41Z" fill="#686868" stroke="#686868" stroke-width="1.51"/><path d="M878,107L702,17L723,170Z" fill="#6a6a6a" stroke="#6a6a6a" stroke-width="1.51"/><path d="M1086,-41L878,107L1103,133Z" fill="#707070" stroke="#707070" stroke-width="1.51"/><path d="M1278,94L1086,-41L1103,133Z" fill="#737373" stroke="#737373" stroke-width="1.51"/><path d="M1413,291L1403,211L1227,349Z" fill="#878787" stroke="#878787" stroke-width="1.51"/><path d="M1270,687L1491,771L1410,483Z" fill="#9b9b9b" stroke="#9b9b9b" stroke-width="1.51"/><path d="M1073,895L1228,932L1100,776Z" fill="#9d9d9d" stroke="#9d9d9d" stroke-width="1.51"/><path d="M1203,1069L1228,932L1073,895Z" fill="#a2a2a2" stroke="#a2a2a2" stroke-width="1.51"/><path d="M528,477L438,694L652,702Z" fill="#7f7f7f" stroke="#7f7f7f" stroke-width="1.51"/><path d="M298,688L438,694L245,564Z" fill="#787878" stroke="#787878" stroke-width="1.51"/><path d="M301,358L528,477L508,376Z" fill="#707070" stroke="#707070" stroke-width="1.51"/><path d="M1418,-61L1299,-12L1278,94Z" fill="#717171" stroke="#717171" stroke-width="1.51"/><path d="M1278,94L1299,-12L1086,-41Z" fill="#6f6f6f" stroke="#6f6f6f" stroke-width="1.51"/><path d="M890,891L840,1055L1073,895Z" fill="#9b9b9b" stroke="#9b9b9b" stroke-width="1.51"/><path d="M660,862L840,1055L890,891Z" fill="#959595" stroke="#959595" stroke-width="1.51"/><path d="M714,1128L840,1055L660,862Z" fill="#989898" stroke="#989898" stroke-width="1.51"/><path d="M1411,959L1491,771L1270,687Z" fill="#a1a1a1" stroke="#a1a1a1" stroke-width="1.51"/><path d="M1410,483L1599,509L1413,291Z" fill="#939393" stroke="#939393" stroke-width="1.51"/><path d="M1413,291L1668,293L1403,211Z" fill="#898989" stroke="#898989" stroke-width="1.51"/><path d="M524,203L301,358L508,376Z" fill="#6b6b6b" stroke="#6b6b6b" stroke-width="1.51"/><path d="M324,109L301,358L524,203Z" fill="#646464" stroke="#646464" stroke-width="1.51"/><path d="M1491,771L1599,509L1410,483Z" fill="#9c9c9c" stroke="#9c9c9c" stroke-width="1.51"/><path d="M1403,211L1418,-61L1278,94Z" fill="#7a7a7a" stroke="#7a7a7a" stroke-width="1.51"/><path d="M1064,1154L1203,1069L1073,895Z" fill="#a7a7a7" stroke="#a7a7a7" stroke-width="1.51"/><path d="M1228,932L1411,959L1270,687Z" fill="#a2a2a2" stroke="#a2a2a2" stroke-width="1.51"/><path d="M438,694L517,971L660,862Z" fill="#878787" stroke="#878787" stroke-width="1.51"/><path d="M242,943L517,971L438,694Z" fill="#848484" stroke="#848484" stroke-width="1.51"/><path d="M1203,1069L1411,959L1228,932Z" fill="#a7a7a7" stroke="#a7a7a7" stroke-width="1.51"/><path d="M245,564L438,694L528,477Z" fill="#787878" stroke="#787878" stroke-width="1.51"/><path d="M1203,1069L1494,1075L1411,959Z" fill="#adadad" stroke="#adadad" stroke-width="1.51"/><path d="M840,1055L1064,1154L1073,895Z" fill="#a4a4a4" stroke="#a4a4a4" stroke-width="1.51"/><path d="M874,1296L1064,1154L840,1055Z" fill="#adadad" stroke="#adadad" stroke-width="1.51"/><path d="M517,971L714,1128L660,862Z" fill="#929292" stroke="#929292" stroke-width="1.51"/><path d="M702,17L463,-52L524,203Z" fill="#5f5f5f" stroke="#5f5f5f" stroke-width="1.51"/><path d="M470,-200L463,-52L702,17Z" fill="#515151" stroke="#515151" stroke-width="1.51"/><path d="M301,358L245,564L528,477Z" fill="#717171" stroke="#717171" stroke-width="1.51"/><path d="M1658,117L1418,-61L1403,211Z" fill="#7e7e7e" stroke="#7e7e7e" stroke-width="1.51"/><path d="M1299,-258L1018,-264L1086,-41Z" fill="#595959" stroke="#595959" stroke-width="1.51"/><path d="M1086,-41L1018,-264L905,-54Z" fill="#5c5c5c" stroke="#5c5c5c" stroke-width="1.51"/><path d="M905,-54L730,-268L702,17Z" fill="#575757" stroke="#575757" stroke-width="1.51"/><path d="M463,-52L324,109L524,203Z" fill="#5d5d5d" stroke="#5d5d5d" stroke-width="1.51"/><path d="M301,358L121,523L245,564Z" fill="#6b6b6b" stroke="#6b6b6b" stroke-width="1.51"/><path d="M1299,-258L1086,-41L1299,-12Z" fill="#646464" stroke="#646464" stroke-width="1.51"/><path d="M1018,-264L863,-272L905,-54Z" fill="#535353" stroke="#535353" stroke-width="1.51"/><path d="M1599,509L1668,293L1413,291Z" fill="#919191" stroke="#919191" stroke-width="1.51"/><path d="M463,-52L338,13L324,109Z" fill="#545454" stroke="#545454" stroke-width="1.51"/><path d="M62,319L121,523L301,358Z" fill="#626262" stroke="#626262" stroke-width="1.51"/><path d="M315,-188L338,13L463,-52Z" fill="#4b4b4b" stroke="#4b4b4b" stroke-width="1.51"/><path d="M863,-272L730,-268L905,-54Z" fill="#4f4f4f" stroke="#4f4f4f" stroke-width="1.51"/><path d="M1599,509L1761,503L1668,293Z" fill="#999999" stroke="#999999" stroke-width="1.51"/><path d="M1491,771L1652,755L1599,509Z" fill="#a1a1a1" stroke="#a1a1a1" stroke-width="1.51"/><path d="M1610,974L1652,755L1491,771Z" fill="#a8a8a8" stroke="#a8a8a8" stroke-width="1.51"/><path d="M517,971L517,1112L714,1128Z" fill="#979797" stroke="#979797" stroke-width="1.51"/><path d="M275,1078L517,1112L517,971Z" fill="#909090" stroke="#909090" stroke-width="1.51"/><path d="M1668,293L1658,117L1403,211Z" fill="#888888" stroke="#888888" stroke-width="1.51"/><path d="M1018,-264L1299,-258L863,-272Z" fill="#4f4f4f" stroke="#4f4f4f" stroke-width="1.51"/><path d="M1418,-61L1299,-258L1299,-12Z" fill="#656565" stroke="#656565" stroke-width="1.51"/><path d="M1431,-231L1299,-258L1418,-61Z" fill="#5f5f5f" stroke="#5f5f5f" stroke-width="1.51"/><path d="M730,-268L470,-200L702,17Z" fill="#4c4c4c" stroke="#4c4c4c" stroke-width="1.51"/><path d="M1652,755L1761,503L1599,509Z" fill="#a1a1a1" stroke="#a1a1a1" stroke-width="1.51"/><path d="M1668,293L1816,323L1658,117Z" fill="#909090" stroke="#909090" stroke-width="1.51"/><path d="M1411,959L1610,974L1491,771Z" fill="#a8a8a8" stroke="#a8a8a8" stroke-width="1.51"/><path d="M1467,1249L1494,1075L1203,1069Z" fill="#b7b7b7" stroke="#b7b7b7" stroke-width="1.51"/><path d="M298,688L242,943L438,694Z" fill="#7d7d7d" stroke="#7d7d7d" stroke-width="1.51"/><path d="M245,564L149,708L298,688Z" fill="#737373" stroke="#737373" stroke-width="1.51"/><path d="M62,319L301,358L95,94Z" fill="#5a5a5a" stroke="#5a5a5a" stroke-width="1.51"/><path d="M121,523L149,708L245,564Z" fill="#6d6d6d" stroke="#6d6d6d" stroke-width="1.51"/><path d="M1064,1154L1196,1257L1203,1069Z" fill="#b3b3b3" stroke="#b3b3b3" stroke-width="1.51"/><path d="M1003,1338L1196,1257L1064,1154Z" fill="#bababa" stroke="#bababa" stroke-width="1.51"/><path d="M874,1296L840,1055L714,1128Z" fill="#a8a8a8" stroke="#a8a8a8" stroke-width="1.51"/><path d="M1658,117L1583,-75L1418,-61Z" fill="#757575" stroke="#757575" stroke-width="1.51"/><path d="M616,1255L874,1296L714,1128Z" fill="#ababab" stroke="#ababab" stroke-width="1.51"/><path d="M1494,1075L1610,974L1411,959Z" fill="#aeaeae" stroke="#aeaeae" stroke-width="1.51"/><path d="M1652,755L1784,752L1761,503Z" fill="#a8a8a8" stroke="#a8a8a8" stroke-width="1.51"/><path d="M1583,-75L1431,-231L1418,-61Z" fill="#676767" stroke="#676767" stroke-width="1.51"/><path d="M149,708L242,943L298,688Z" fill="#787878" stroke="#787878" stroke-width="1.51"/><path d="M483,1273L616,1255L517,1112Z" fill="#a2a2a2" stroke="#a2a2a2" stroke-width="1.51"/><path d="M517,1112L616,1255L714,1128Z" fill="#a1a1a1" stroke="#a1a1a1" stroke-width="1.51"/><path d="M280,1357L1003,1338L874,1296Z" fill="#b4b4b4" stroke="#b4b4b4" stroke-width="1.51"/><path d="M874,1296L1003,1338L1064,1154Z" fill="#b8b8b8" stroke="#b8b8b8" stroke-width="1.51"/><path d="M1814,-53L1614,-189L1583,-75Z" fill="#6e6e6e" stroke="#6e6e6e" stroke-width="1.51"/><path d="M1761,503L1816,323L1668,293Z" fill="#999999" stroke="#999999" stroke-width="1.51"/><path d="M1761,503L2073,373L1816,323Z" fill="#a3a3a3" stroke="#a3a3a3" stroke-width="1.51"/><path d="M1853,934L1784,752L1652,755Z" fill="#b0b0b0" stroke="#b0b0b0" stroke-width="1.51"/><path d="M95,94L301,358L324,109Z" fill="#5b5b5b" stroke="#5b5b5b" stroke-width="1.51"/><path d="M-35,716L47,909L149,708Z" fill="#6c6c6c" stroke="#6c6c6c" stroke-width="1.51"/><path d="M95,94L324,109L150,-47Z" fill="#4e4e4e" stroke="#4e4e4e" stroke-width="1.51"/><path d="M470,-200L315,-188L463,-52Z" fill="#464646" stroke="#464646" stroke-width="1.51"/><path d="M42,-280L315,-188L470,-200Z" fill="#393939" stroke="#393939" stroke-width="1.51"/><path d="M242,943L275,1078L517,971Z" fill="#888888" stroke="#888888" stroke-width="1.51"/><path d="M87,1112L275,1078L242,943Z" fill="#838383" stroke="#838383" stroke-width="1.51"/><path d="M150,-47L324,109L338,13Z" fill="#515151" stroke="#515151" stroke-width="1.51"/><path d="M275,1078L483,1273L517,1112Z" fill="#989898" stroke="#989898" stroke-width="1.51"/><path d="M616,1255L483,1273L874,1296Z" fill="#acacac" stroke="#acacac" stroke-width="1.51"/><path d="M1583,-75L1614,-189L1431,-231Z" fill="#656565" stroke="#656565" stroke-width="1.51"/><path d="M1814,-53L1583,-75L1658,117Z" fill="#7a7a7a" stroke="#7a7a7a" stroke-width="1.51"/><path d="M315,-188L150,-47L338,13Z" fill="#474747" stroke="#474747" stroke-width="1.51"/><path d="M1610,974L1853,934L1652,755Z" fill="#afafaf" stroke="#afafaf" stroke-width="1.51"/><path d="M1494,1075L1692,1168L1610,974Z" fill="#b7b7b7" stroke="#b7b7b7" stroke-width="1.51"/><path d="M1196,1257L1467,1249L1203,1069Z" fill="#bababa" stroke="#bababa" stroke-width="1.51"/><path d="M1003,1338L1467,1249L1196,1257Z" fill="#c0c0c0" stroke="#c0c0c0" stroke-width="1.51"/><path d="M149,708L47,909L242,943Z" fill="#757575" stroke="#757575" stroke-width="1.51"/><path d="M275,1078L280,1357L483,1273Z" fill="#9c9c9c" stroke="#9c9c9c" stroke-width="1.51"/><path d="M-35,716L149,708L121,523Z" fill="#696969" stroke="#696969" stroke-width="1.51"/><path d="M1816,323L1879,92L1658,117Z" fill="#909090" stroke="#909090" stroke-width="1.51"/><path d="M2055,177L1879,92L1816,323Z" fill="#989898" stroke="#989898" stroke-width="1.51"/><path d="M-98,392L121,523L62,319Z" fill="#5a5a5a" stroke="#5a5a5a" stroke-width="1.51"/><path d="M-115,495L-35,716L121,523Z" fill="#606060" stroke="#606060" stroke-width="1.51"/><path d="M1879,92L1814,-53L1658,117Z" fill="#868686" stroke="#868686" stroke-width="1.51"/><path d="M1882,1054L1853,934L1610,974Z" fill="#b9b9b9" stroke="#b9b9b9" stroke-width="1.51"/><path d="M1784,752L2058,581L1761,503Z" fill="#aeaeae" stroke="#aeaeae" stroke-width="1.51"/><path d="M1467,1249L1692,1168L1494,1075Z" fill="#bebebe" stroke="#bebebe" stroke-width="1.51"/><path d="M-120,188L-98,392L62,319Z" fill="#4f4f4f" stroke="#4f4f4f" stroke-width="1.51"/><path d="M-120,188L62,319L95,94Z" fill="#4d4d4d" stroke="#4d4d4d" stroke-width="1.51"/><path d="M-98,392L-115,495L121,523Z" fill="#5a5a5a" stroke="#5a5a5a" stroke-width="1.51"/><path d="M-108,932L47,909L-35,716Z" fill="#696969" stroke="#696969" stroke-width="1.51"/><path d="M-48,1096L87,1112L47,909Z" fill="#777777" stroke="#777777" stroke-width="1.51"/><path d="M47,909L87,1112L242,943Z" fill="#7a7a7a" stroke="#7a7a7a" stroke-width="1.51"/><path d="M1814,-53L1804,-204L1614,-189Z" fill="#6e6e6e" stroke="#6e6e6e" stroke-width="1.51"/><path d="M1614,-189L1804,-204L1431,-231Z" fill="#626262" stroke="#626262" stroke-width="1.51"/><path d="M1431,-231L1956,-241L1299,-258Z" fill="#5d5d5d" stroke="#5d5d5d" stroke-width="1.51"/><path d="M1956,-241L1804,-204L1814,-53Z" fill="#727272" stroke="#727272" stroke-width="1.51"/><path d="M1467,1249L1644,1303L1692,1168Z" fill="#c6c6c6" stroke="#c6c6c6" stroke-width="1.51"/><path d="M1692,1168L1882,1054L1610,974Z" fill="#bdbdbd" stroke="#bdbdbd" stroke-width="1.51"/><path d="M1003,1338L1644,1303L1467,1249Z" fill="#c5c5c5" stroke="#c5c5c5" stroke-width="1.51"/><path d="M-317,310L-239,599L-115,495Z" fill="#4d4d4d" stroke="#4d4d4d" stroke-width="1.51"/><path d="M-97,25L-120,188L95,94Z" fill="#454545" stroke="#454545" stroke-width="1.51"/><path d="M1836,1284L1882,1054L1692,1168Z" fill="#cbcbcb" stroke="#cbcbcb" stroke-width="1.51"/><path d="M1853,934L2009,781L1784,752Z" fill="#b7b7b7" stroke="#b7b7b7" stroke-width="1.51"/><path d="M1955,977L2009,781L1853,934Z" fill="#bebebe" stroke="#bebebe" stroke-width="1.51"/><path d="M64,1280L280,1357L275,1078Z" fill="#959595" stroke="#959595" stroke-width="1.51"/><path d="M483,1273L280,1357L874,1296Z" fill="#ababab" stroke="#ababab" stroke-width="1.51"/><path d="M2009,781L2058,581L1784,752Z" fill="#b6b6b6" stroke="#b6b6b6" stroke-width="1.51"/><path d="M1879,92L2044,-44L1814,-53Z" fill="#878787" stroke="#878787" stroke-width="1.51"/><path d="M-55,-272L-97,25L150,-47Z" fill="#343434" stroke="#343434" stroke-width="1.51"/><path d="M150,-47L-97,25L95,94Z" fill="#424242" stroke="#424242" stroke-width="1.51"/><path d="M2058,581L2073,373L1761,503Z" fill="#adadad" stroke="#adadad" stroke-width="1.51"/><path d="M1882,1054L1955,977L1853,934Z" fill="#c0c0c0" stroke="#c0c0c0" stroke-width="1.51"/><path d="M2073,373L2055,177L1816,323Z" fill="#a2a2a2" stroke="#a2a2a2" stroke-width="1.51"/><path d="M-243,689L-108,932L-35,716Z" fill="#606060" stroke="#606060" stroke-width="1.51"/><path d="M87,1112L64,1280L275,1078Z" fill="#898989" stroke="#898989" stroke-width="1.51"/><path d="M-239,599L-35,716L-115,495Z" fill="#595959" stroke="#595959" stroke-width="1.51"/><path d="M315,-188L42,-280L150,-47Z" fill="#373737" stroke="#373737" stroke-width="1.51"/><path d="M730,-268L42,-280L470,-200Z" fill="#3c3c3c" stroke="#3c3c3c" stroke-width="1.51"/><path d="M863,-272L42,-280L730,-268Z" fill="#3e3e3e" stroke="#3e3e3e" stroke-width="1.51"/><path d="M-108,932L-48,1096L47,909Z" fill="#6e6e6e" stroke="#6e6e6e" stroke-width="1.51"/><path d="M-230,1133L-74,1259L-48,1096Z" fill="#787878" stroke="#787878" stroke-width="1.51"/><path d="M-317,310L-115,495L-98,392Z" fill="#4c4c4c" stroke="#4c4c4c" stroke-width="1.51"/><path d="M-317,310L-98,392L-120,188Z" fill="#474747" stroke="#474747" stroke-width="1.51"/><path d="M-48,1096L64,1280L87,1112Z" fill="#828282" stroke="#828282" stroke-width="1.51"/><path d="M-239,599L-243,689L-35,716Z" fill="#595959" stroke="#595959" stroke-width="1.51"/><path d="M2191,153L2044,-44L2055,177Z" fill="#9b9b9b" stroke="#9b9b9b" stroke-width="1.51"/><path d="M2055,177L2044,-44L1879,92Z" fill="#939393" stroke="#939393" stroke-width="1.51"/><path d="M1882,1054L2078,1139L1955,977Z" fill="#cacaca" stroke="#cacaca" stroke-width="1.51"/><path d="M1644,1303L1836,1284L1692,1168Z" fill="#cecece" stroke="#cecece" stroke-width="1.51"/><path d="M1804,-204L1956,-241L1431,-231Z" fill="#656565" stroke="#656565" stroke-width="1.51"/><path d="M1299,-258L1956,-241L863,-272Z" fill="#575757" stroke="#575757" stroke-width="1.51"/><path d="M2044,-44L1956,-241L1814,-53Z" fill="#7d7d7d" stroke="#7d7d7d" stroke-width="1.51"/><path d="M2058,581L2180,496L2073,373Z" fill="#b5b5b5" stroke="#b5b5b5" stroke-width="1.51"/><path d="M2073,373L2191,153L2055,177Z" fill="#a5a5a5" stroke="#a5a5a5" stroke-width="1.51"/><path d="M2192,725L2180,496L2058,581Z" fill="#bdbdbd" stroke="#bdbdbd" stroke-width="1.51"/><path d="M2192,725L2058,581L2009,781Z" fill="#bdbdbd" stroke="#bdbdbd" stroke-width="1.51"/><path d="M2192,725L2009,781L2186,876Z" fill="#c4c4c4" stroke="#c4c4c4" stroke-width="1.51"/><path d="M42,-280L-55,-272L150,-47Z" fill="#2e2e2e" stroke="#2e2e2e" stroke-width="1.51"/><path d="M-97,25L-272,143L-120,188Z" fill="#3e3e3e" stroke="#3e3e3e" stroke-width="1.51"/><path d="M-276,-54L-272,143L-97,25Z" fill="#343434" stroke="#343434" stroke-width="1.51"/><path d="M-239,599L-317,310L-243,689Z" fill="#4e4e4e" stroke="#4e4e4e" stroke-width="1.51"/><path d="M-272,143L-317,310L-120,188Z" fill="#3f3f3f" stroke="#3f3f3f" stroke-width="1.51"/><path d="M2186,876L2009,781L1955,977Z" fill="#c3c3c3" stroke="#c3c3c3" stroke-width="1.51"/><path d="M2044,-44L2192,-172L1956,-241Z" fill="#7f7f7f" stroke="#7f7f7f" stroke-width="1.51"/><path d="M2267,354L2191,153L2073,373Z" fill="#adadad" stroke="#adadad" stroke-width="1.51"/><path d="M2267,354L2073,373L2180,496Z" fill="#b4b4b4" stroke="#b4b4b4" stroke-width="1.51"/><path d="M-48,1096L-74,1259L64,1280Z" fill="#828282" stroke="#828282" stroke-width="1.51"/><path d="M64,1280L-311,1271L280,1357Z" fill="#8d8d8d" stroke="#8d8d8d" stroke-width="1.51"/><path d="M-230,1133L-48,1096L-108,932Z" fill="#6e6e6e" stroke="#6e6e6e" stroke-width="1.51"/><path d="M2200,1084L2186,876L1955,977Z" fill="#cccccc" stroke="#cccccc" stroke-width="1.51"/><path d="M-243,689L-299,892L-108,932Z" fill="#5d5d5d" stroke="#5d5d5d" stroke-width="1.51"/><path d="M-317,310L-299,892L-243,689Z" fill="#505050" stroke="#505050" stroke-width="1.51"/><path d="M1836,1284L2078,1139L1882,1054Z" fill="#d1d1d1" stroke="#d1d1d1" stroke-width="1.51"/><path d="M-55,-272L-276,-54L-97,25Z" fill="#2c2c2c" stroke="#2c2c2c" stroke-width="1.51"/><path d="M-272,143L-276,-54L-317,310Z" fill="#383838" stroke="#383838" stroke-width="1.51"/><path d="M2186,876L2267,354L2192,725Z" fill="#c3c3c3" stroke="#c3c3c3" stroke-width="1.51"/><path d="M2192,725L2267,354L2180,496Z" fill="#bebebe" stroke="#bebebe" stroke-width="1.51"/><path d="M-299,892L-230,1133L-108,932Z" fill="#626262" stroke="#626262" stroke-width="1.51"/><path d="M2237,-78L2044,-44L2191,153Z" fill="#969696" stroke="#969696" stroke-width="1.51"/><path d="M2237,-78L2192,-172L2044,-44Z" fill="#8a8a8a" stroke="#8a8a8a" stroke-width="1.51"/><path d="M2186,876L2200,1084L2267,354Z" fill="#c9c9c9" stroke="#c9c9c9" stroke-width="1.51"/><path d="M2078,1139L2200,1084L1955,977Z" fill="#d1d1d1" stroke="#d1d1d1" stroke-width="1.51"/><path d="M2235,1293L2200,1084L2078,1139Z" fill="#e1e1e1" stroke="#e1e1e1" stroke-width="1.51"/><path d="M2267,354L2237,-78L2191,153Z" fill="#a7a7a7" stroke="#a7a7a7" stroke-width="1.51"/><path d="M-55,-272L-255,-270L-276,-54Z" fill="#202020" stroke="#202020" stroke-width="1.51"/><path d="M-276,-54L-255,-270L-317,310Z" fill="#2d2d2d" stroke="#2d2d2d" stroke-width="1.51"/><path d="M42,-280L-255,-270L-55,-272Z" fill="#202020" stroke="#202020" stroke-width="1.51"/><path d="M1836,1284L2076,1308L2078,1139Z" fill="#dddddd" stroke="#dddddd" stroke-width="1.51"/><path d="M1644,1303L2076,1308L1836,1284Z" fill="#dadada" stroke="#dadada" stroke-width="1.51"/><path d="M1003,1338L2076,1308L1644,1303Z" fill="#cdcdcd" stroke="#cdcdcd" stroke-width="1.51"/><path d="M-230,1133L-311,1271L-74,1259Z" fill="#767676" stroke="#767676" stroke-width="1.51"/><path d="M-74,1259L-311,1271L64,1280Z" fill="#828282" stroke="#828282" stroke-width="1.51"/><path d="M-299,892L-311,1271L-230,1133Z" fill="#686868" stroke="#686868" stroke-width="1.51"/><path d="M-317,310L-311,1271L-299,892Z" fill="#565656" stroke="#565656" stroke-width="1.51"/><path d="M2076,1308L2235,1293L2078,1139Z" fill="#e5e5e5" stroke="#e5e5e5" stroke-width="1.51"/><path d="M2200,1084L2235,1293L2267,354Z" fill="#cfcfcf" stroke="#cfcfcf" stroke-width="1.51"/></svg>